<svg viewBox="262 354 676 82">
    <path d="M902.696165,418.3054 C904.505287,419.969941 906.696253,421.256345 909.269062,422.160906 C911.840018,423.067321 914.464728,423.519602 917.143193,423.519602 C919.026459,423.519602 920.618709,423.10254 921.921796,422.270269 C923.224883,421.436145 923.879207,420.368467 923.879207,419.06538 C923.879207,417.762293 923.24342,416.694614 921.975551,415.86049 C920.709536,415.028219 919.133969,414.26824 917.252556,413.578697 C915.369289,412.891008 913.322905,412.166247 911.115257,411.406268 C908.905755,410.646288 906.85937,409.669436 904.977957,408.473858 C903.092837,407.280134 901.51727,405.776857 900.253108,403.967735 C898.983386,402.156759 898.351306,399.837894 898.351306,397.014848 C898.351306,394.479111 898.911096,392.199172 900.034383,390.171324 C901.15767,388.14533 902.657239,386.423327 904.544213,385.010877 C906.425626,383.598427 908.57952,382.512212 911.005894,381.752232 C913.432268,380.992253 915.947615,380.612263 918.555643,380.612263 C920.292474,380.612263 922.031159,380.756844 923.769844,381.046007 C925.50853,381.337024 927.152681,381.73555 928.711566,382.241585 C930.268597,382.74762 931.714412,383.3278 933.058279,383.978417 C934.396584,384.630887 935.501335,385.283357 936.370678,385.933974 L929.744026,396.145506 C928.368648,395.131581 926.811617,394.280775 925.072932,393.593086 C923.334246,392.905397 921.52327,392.560626 919.641857,392.560626 C917.6863,392.560626 916.003223,392.923933 914.590773,393.646841 C913.178323,394.371602 912.472098,395.422598 912.472098,396.796122 C912.472098,397.954628 913.106032,398.879579 914.373901,399.567268 C915.639916,400.25681 917.215483,400.924109 919.09875,401.57658 C920.980163,402.227196 923.026547,402.933421 925.236049,403.693401 C927.443697,404.455234 929.488228,405.487694 931.375202,406.790781 C933.254761,408.093869 934.832182,409.723191 936.100051,411.678748 C937.364212,413.632452 938,416.131117 938,419.174743 C938,421.708626 937.417967,423.971882 936.261315,425.962658 C935.102809,427.955288 933.56246,429.655047 931.645829,431.069351 C929.72549,432.479947 927.497452,433.566162 924.965422,434.327995 C922.429685,435.087975 919.786439,435.467965 917.03383,435.467965 C913.341441,435.467965 909.665734,434.871103 906.010418,433.675525 C902.351394,432.479947 898.96485,430.72458 895.852641,428.405715 L902.696165,418.3054 Z M873.04213,434.38175 L887.162922,434.38175 L887.162922,381.698478 L873.04213,381.698478 L873.04213,434.38175 Z M870.8697,363.015954 C870.8697,360.48207 871.772408,358.343006 873.585237,356.606174 C875.394359,354.867489 877.566789,354 880.10438,354 C882.638263,354 884.810693,354.867489 886.619815,356.606174 C888.430791,358.343006 889.335352,360.48207 889.335352,363.015954 C889.335352,365.549837 888.430791,367.685195 886.619815,369.42388 C884.810693,371.160711 882.638263,372.030054 880.10438,372.030054 C877.566789,372.030054 875.394359,371.160711 873.585237,369.42388 C871.772408,367.685195 870.8697,365.549837 870.8697,363.015954 L870.8697,363.015954 Z M845.212046,434.38175 L859.332838,434.38175 L859.332838,357.258644 L845.212046,357.258644 L845.212046,434.38175 Z M817.52469,434.38175 L831.645482,434.38175 L831.645482,357.258644 L817.52469,357.258644 L817.52469,434.38175 Z M789.694606,434.38175 L803.815398,434.38175 L803.815398,381.698478 L789.694606,381.698478 L789.694606,434.38175 Z M787.522176,363.015954 C787.522176,360.48207 788.426737,358.343006 790.237713,356.606174 C792.046835,354.867489 794.221118,354 796.756855,354 C799.290739,354 801.463168,354.867489 803.272291,356.606174 C805.083267,358.343006 805.987828,360.48207 805.987828,363.015954 C805.987828,365.549837 805.083267,367.685195 803.272291,369.42388 C801.463168,371.160711 799.290739,372.030054 796.756855,372.030054 C794.221118,372.030054 792.046835,371.160711 790.237713,369.42388 C788.426737,367.685195 787.522176,365.549837 787.522176,363.015954 L787.522176,363.015954 Z M677.249129,358.343006 L692.020538,358.343006 L707.772507,405.81393 L724.499473,358.343006 L734.820368,358.343006 L751.547334,405.81393 L767.297449,358.343006 L782.072566,358.343006 L756.870899,434.38175 L746.550005,434.38175 L729.606166,386.260209 L712.767983,434.38175 L702.450795,434.38175 L677.249129,358.343006 Z M573.596268,418.3054 C575.40539,419.969941 577.596356,421.256345 580.169165,422.160906 C582.740121,423.067321 585.364831,423.519602 588.043296,423.519602 C589.926562,423.519602 591.518812,423.10254 592.8219,422.270269 C594.124987,421.436145 594.779311,420.368467 594.779311,419.06538 C594.779311,417.762293 594.143523,416.694614 592.877508,415.86049 C591.609639,415.028219 590.034072,414.26824 588.152659,413.578697 C586.269392,412.891008 584.224861,412.166247 582.01536,411.406268 C579.805858,410.646288 577.759474,409.669436 575.879914,408.473858 C573.99294,407.280134 572.417373,405.776857 571.153212,403.967735 C569.883489,402.156759 569.251409,399.837894 569.251409,397.014848 C569.251409,394.479111 569.811199,392.199172 570.936339,390.171324 C572.057773,388.14533 573.559196,386.423327 575.444316,385.010877 C577.325729,383.598427 579.479623,382.512212 581.90785,381.752232 C584.332371,380.992253 586.849572,380.612263 589.455746,380.612263 C591.192577,380.612263 592.931262,380.756844 594.669948,381.046007 C596.408633,381.337024 598.052784,381.73555 599.611669,382.241585 C601.1687,382.74762 602.614515,383.3278 603.958382,383.978417 C605.296687,384.630887 606.401438,385.283357 607.270781,385.933974 L600.644129,396.145506 C599.268751,395.131581 597.71172,394.280775 595.973035,393.593086 C594.23435,392.905397 592.423374,392.560626 590.541961,392.560626 C588.586403,392.560626 586.903326,392.923933 585.490876,393.646841 C584.078426,394.371602 583.374055,395.422598 583.374055,396.796122 C583.374055,397.954628 584.006136,398.879579 585.274004,399.567268 C586.541873,400.25681 588.115587,400.924109 589.998853,401.57658 C591.880266,402.227196 593.92665,402.933421 596.136152,403.693401 C598.3438,404.455234 600.388331,405.487694 602.275305,406.790781 C604.154864,408.093869 605.732286,409.723191 607.000154,411.678748 C608.264315,413.632452 608.900103,416.131117 608.900103,419.174743 C608.900103,421.708626 608.319924,423.971882 607.163272,425.962658 C606.004766,427.955288 604.462563,429.655047 602.545932,431.069351 C600.625593,432.479947 598.397555,433.566162 595.865525,434.327995 C593.329788,435.087975 590.686542,435.467965 587.933933,435.467965 C584.241544,435.467965 580.565837,434.871103 576.910521,433.675525 C573.25335,432.479947 569.864953,430.72458 566.752744,428.405715 L573.596268,418.3054 Z M543.615998,434.38175 L557.73679,434.38175 L557.73679,357.258644 L543.615998,357.258644 L543.615998,434.38175 Z M515.787767,434.38175 L529.90856,434.38175 L529.90856,381.698478 L515.787767,381.698478 L515.787767,434.38175 Z M513.615338,363.015954 C513.615338,360.48207 514.518045,358.343006 516.330875,356.606174 C518.138143,354.867489 520.312427,354 522.848164,354 C525.382047,354 527.554477,354.867489 529.365452,356.606174 C531.174575,358.343006 532.08099,360.48207 532.08099,363.015954 C532.08099,365.549837 531.174575,367.685195 529.365452,369.42388 C527.554477,371.160711 525.382047,372.030054 522.848164,372.030054 C520.312427,372.030054 518.138143,371.160711 516.330875,369.42388 C514.518045,367.685195 513.615338,365.549837 513.615338,363.015954 L513.615338,363.015954 Z M488.111533,400.16413 C486.662011,398.208572 484.815816,396.634858 482.572949,395.439281 C480.326375,394.245556 477.825857,393.646841 475.076955,393.646841 C472.974963,393.646841 471.091696,394.045367 469.427155,394.842418 C467.760761,395.63947 466.350164,396.707149 465.191659,398.045455 C464.033153,399.387468 463.126738,400.924109 462.476122,402.662794 C461.823651,404.40148 461.49927,406.212455 461.49927,408.093869 C461.49927,410.195861 461.840334,412.112493 462.529876,413.851178 C463.217565,415.588009 464.196271,417.09314 465.462286,418.359155 C466.730154,419.627023 468.214895,420.622411 469.916508,421.347172 C471.618121,422.07008 473.445779,422.433387 475.40319,422.433387 C478.079801,422.433387 480.522858,421.834671 482.736067,420.640947 C484.941862,419.445369 486.736155,417.871655 488.111533,415.914244 L488.111533,400.16413 Z M488.65464,434.38175 L488.65464,430.1444 C486.482211,432.027667 484.163346,433.386362 481.703607,434.218632 C479.240161,435.049049 476.667351,435.467965 473.988887,435.467965 C470.077772,435.467965 466.3687,434.669059 462.856112,433.078663 C459.341669,431.484559 456.427796,429.31213 454.112638,426.55952 C452.008792,424.170219 450.364641,421.400927 449.169063,418.251645 C447.975339,415.10051 447.376624,411.71582 447.376624,408.093869 C447.376624,404.184607 448.045776,400.564509 449.385936,397.23172 C450.724241,393.900785 452.572289,391.003594 454.928226,388.540148 C457.278602,386.080409 460.014529,384.141534 463.126738,382.730938 C466.240801,381.318488 469.608809,380.612263 473.228907,380.612263 C479.023288,380.612263 483.983546,382.241585 488.111533,385.50023 L488.111533,357.256791 L502.232325,357.256791 L502.232325,434.38175 L488.65464,434.38175 Z M442.381148,394.189948 C441.873259,394.045367 441.148498,393.919321 440.208718,393.809958 C439.265231,393.702449 438.288379,393.646841 437.274455,393.646841 C435.754496,393.646841 434.306827,393.900785 432.929596,394.40682 C431.554218,394.914709 430.304886,395.548643 429.183452,396.308623 C428.060165,397.068603 427.101849,397.882337 426.304798,398.75168 C425.507746,399.621022 424.894201,400.455146 424.458603,401.250344 L424.458603,434.38175 L410.335957,434.38175 L410.335957,381.698478 L423.915496,381.698478 L423.915496,387.020189 C425.507746,385.064632 427.644957,383.509454 430.323422,382.350948 C433.00374,381.192443 435.971368,380.612263 439.230013,380.612263 C440.243937,380.612263 441.094743,380.649335 441.784286,380.721626 C442.470121,380.793917 443.211564,380.901426 444.01047,381.046007 L442.381148,394.189948 Z M358.568368,408.093869 C358.568368,410.049426 358.909432,411.89562 359.600828,413.632452 C360.286663,415.371137 361.23015,416.891096 362.423874,418.196037 C363.619452,419.500978 365.06712,420.531584 366.768733,421.291564 C368.470346,422.051544 370.370296,422.433387 372.470434,422.433387 C374.498283,422.433387 376.381549,422.051544 378.120234,421.291564 C379.858919,420.531584 381.325124,419.500978 382.518848,418.196037 C383.714426,416.891096 384.654206,415.371137 385.345602,413.632452 C386.031437,411.89562 386.376208,410.049426 386.376208,408.093869 C386.376208,406.140165 386.031437,404.275434 385.345602,402.499677 C384.654206,400.727627 383.714426,399.187278 382.518848,397.882337 C381.325124,396.57925 379.858919,395.548643 378.120234,394.78681 C376.381549,394.026831 374.498283,393.646841 372.470434,393.646841 C370.370296,393.646841 368.470346,394.026831 366.768733,394.78681 C365.06712,395.548643 363.619452,396.57925 362.423874,397.882337 C361.23015,399.187278 360.286663,400.727627 359.600828,402.499677 C358.909432,404.275434 358.568368,406.140165 358.568368,408.093869 L358.568368,408.093869 Z M344.445721,408.093869 C344.445721,404.329189 345.151946,400.760992 346.564396,397.394838 C347.974993,394.026831 349.93055,391.112957 352.431069,388.649511 C354.92788,386.189772 357.897361,384.234215 361.337659,382.784693 C364.776104,381.337024 368.488882,380.612263 372.470434,380.612263 C376.45384,380.612263 380.164765,381.337024 383.605063,382.784693 C387.045361,384.234215 390.014843,386.189772 392.513507,388.649511 C395.010319,391.112957 396.965876,394.026831 398.378326,397.394838 C399.790776,400.760992 400.495147,404.329189 400.495147,408.093869 C400.495147,411.932693 399.790776,415.499036 398.378326,418.794753 C396.965876,422.088616 395.010319,424.985806 392.513507,427.482618 C390.014843,429.981282 387.045361,431.93684 383.605063,433.34929 C380.164765,434.76174 376.45384,435.467965 372.470434,435.467965 C368.488882,435.467965 364.776104,434.76174 361.337659,433.34929 C357.897361,431.93684 354.92788,429.981282 352.431069,427.482618 C349.93055,424.985806 347.974993,422.088616 346.564396,418.794753 C345.151946,415.499036 344.445721,411.932693 344.445721,408.093869 L344.445721,408.093869 Z M302.97493,370.293222 C299.352978,370.293222 296.003506,370.982765 292.926516,372.356289 C289.847671,373.73352 287.169206,375.598251 284.887414,377.950481 C282.607475,380.304564 280.833571,383.05532 279.565703,386.206455 C278.299688,389.355736 277.665754,392.74228 277.665754,396.362378 C277.665754,400.054767 278.333053,403.496918 279.675066,406.681419 C281.013371,409.869626 282.842883,412.620381 285.159894,414.937393 C287.476906,417.256257 290.209125,419.083916 293.362114,420.424075 C296.511395,421.762381 299.933157,422.433387 303.6274,422.433387 C307.102917,422.433387 310.252198,421.89028 313.075244,420.804065 C315.900144,419.71785 318.398809,418.3054 320.571239,416.566715 L320.571239,400.16413 L301.019372,400.16413 L301.019372,387.129552 L335.235139,387.129552 L335.235139,420.911574 C331.830059,425.256433 327.416616,428.770876 321.983689,431.449341 C316.550761,434.127806 310.324489,435.467965 303.301165,435.467965 C297.362202,435.467965 291.929274,434.452187 287.006089,432.426193 C282.082904,430.398344 277.8437,427.629053 274.297746,424.116464 C270.748085,420.603875 267.978794,416.457352 265.988018,411.678748 C263.995388,406.900144 263,401.793452 263,396.362378 C263,390.931304 263.978705,385.826465 265.934263,381.046007 C267.887967,376.26555 270.620186,372.122734 274.134629,368.608292 C277.647218,365.097556 281.864178,362.328265 286.789217,360.298563 C291.712402,358.272569 297.14533,357.256791 303.084292,357.256791 C308.732239,357.256791 313.909368,358.235496 318.617535,360.1892 C323.323848,362.144758 327.416616,364.789857 330.892133,368.120793 L321.440581,378.113598 C319.121717,375.796587 316.40618,373.915174 313.292117,372.465652 C310.179907,371.01613 306.739609,370.293222 302.97493,370.293222 L302.97493,370.293222 Z M639.577374,423.497358 C634.081424,423.497358 630.594786,419.165474 630.594786,414.831737 C630.594786,410.394197 633.026721,407.541493 636.619015,404.9001 L638.20385,403.737888 L650.988191,417.263672 C647.39775,421.067277 644.12057,423.497358 639.577374,423.497358 L639.577374,423.497358 Z M641.16221,369.394222 C645.601603,369.394222 648.769421,372.563893 648.769421,376.580664 C648.769421,379.327712 647.501552,381.969105 644.014914,384.506695 L640.315111,387.253744 L638.309506,385.034974 C636.407703,383.131317 633.871966,380.067302 633.871966,376.897631 C633.871966,371.826157 637.675572,369.394222 641.16221,369.394222 L641.16221,369.394222 Z M680.851684,403.654475 L676.523507,390.599508 L659.97078,407.85846 L648.663765,395.917512 L651.516469,393.804398 C656.908618,389.789481 662.085747,384.29353 662.085747,376.686319 C662.085747,365.484961 653.206961,357.772094 641.267866,357.772094 C631.123064,357.772094 620.55564,364.745371 620.55564,377.320254 C620.55564,384.082219 625.206345,389.789481 628.798639,393.593086 L629.960851,394.862808 L629.432573,395.177922 C621.614051,400.988986 616.646379,406.377427 616.646379,415.676983 C616.646379,425.716128 624.678066,435.755274 639.366063,435.755274 C647.39775,435.755274 653.840895,431.949815 659.442501,426.244407 L667.157221,434.38175 L685.331856,434.38175 L668.423236,416.629737 L680.851684,403.654475 Z" id="Fill-1" stroke="none" fill="#FFFFFF" fill-rule="evenodd" transform="translate(600.500000, 394.877637) rotate(-360.000000) translate(-600.500000, -394.877637) "></path>
</svg>