
<svg width="675px" height="82px" viewBox="262 354 675 82">
    <path d="M900.696165,418.3054 C902.505287,419.969941 904.696253,421.256345 907.269062,422.160906 C909.840018,423.067321 912.464728,423.519602 915.143193,423.519602 C917.026459,423.519602 918.618709,423.10254 919.921796,422.270269 C921.224883,421.436145 921.879207,420.368467 921.879207,419.06538 C921.879207,417.762293 921.24342,416.694614 919.975551,415.86049 C918.709536,415.028219 917.133969,414.26824 915.252556,413.578697 C913.369289,412.891008 911.322905,412.166247 909.115257,411.406268 C906.905755,410.646288 904.85937,409.669436 902.977957,408.473858 C901.092837,407.280134 899.51727,405.776857 898.253108,403.967735 C896.983386,402.156759 896.351306,399.837894 896.351306,397.014848 C896.351306,394.479111 896.911096,392.199172 898.034383,390.171324 C899.15767,388.14533 900.657239,386.423327 902.544213,385.010877 C904.425626,383.598427 906.57952,382.512212 909.005894,381.752232 C911.432268,380.992253 913.947615,380.612263 916.555643,380.612263 C918.292474,380.612263 920.031159,380.756844 921.769844,381.046007 C923.50853,381.337024 925.152681,381.73555 926.711566,382.241585 C928.268597,382.74762 929.714412,383.3278 931.058279,383.978417 C932.396584,384.630887 933.501335,385.283357 934.370678,385.933974 L927.744026,396.145506 C926.368648,395.131581 924.811617,394.280775 923.072932,393.593086 C921.334246,392.905397 919.52327,392.560626 917.641857,392.560626 C915.6863,392.560626 914.003223,392.923933 912.590773,393.646841 C911.178323,394.371602 910.472098,395.422598 910.472098,396.796122 C910.472098,397.954628 911.106032,398.879579 912.373901,399.567268 C913.639916,400.25681 915.215483,400.924109 917.09875,401.57658 C918.980163,402.227196 921.026547,402.933421 923.236049,403.693401 C925.443697,404.455234 927.488228,405.487694 929.375202,406.790781 C931.254761,408.093869 932.832182,409.723191 934.100051,411.678748 C935.364212,413.632452 936,416.131117 936,419.174743 C936,421.708626 935.417967,423.971882 934.261315,425.962658 C933.102809,427.955288 931.56246,429.655047 929.645829,431.069351 C927.72549,432.479947 925.497452,433.566162 922.965422,434.327995 C920.429685,435.087975 917.786439,435.467965 915.03383,435.467965 C911.341441,435.467965 907.665734,434.871103 904.010418,433.675525 C900.351394,432.479947 896.96485,430.72458 893.852641,428.405715 L900.696165,418.3054 Z M871.04213,434.38175 L885.162922,434.38175 L885.162922,381.698478 L871.04213,381.698478 L871.04213,434.38175 Z M868.8697,363.015954 C868.8697,360.48207 869.772408,358.343006 871.585237,356.606174 C873.394359,354.867489 875.566789,354 878.10438,354 C880.638263,354 882.810693,354.867489 884.619815,356.606174 C886.430791,358.343006 887.335352,360.48207 887.335352,363.015954 C887.335352,365.549837 886.430791,367.685195 884.619815,369.42388 C882.810693,371.160711 880.638263,372.030054 878.10438,372.030054 C875.566789,372.030054 873.394359,371.160711 871.585237,369.42388 C869.772408,367.685195 868.8697,365.549837 868.8697,363.015954 L868.8697,363.015954 Z M843.212046,434.38175 L857.332838,434.38175 L857.332838,357.258644 L843.212046,357.258644 L843.212046,434.38175 Z M815.52469,434.38175 L829.645482,434.38175 L829.645482,357.258644 L815.52469,357.258644 L815.52469,434.38175 Z M787.694606,434.38175 L801.815398,434.38175 L801.815398,381.698478 L787.694606,381.698478 L787.694606,434.38175 Z M785.522176,363.015954 C785.522176,360.48207 786.426737,358.343006 788.237713,356.606174 C790.046835,354.867489 792.221118,354 794.756855,354 C797.290739,354 799.463168,354.867489 801.272291,356.606174 C803.083267,358.343006 803.987828,360.48207 803.987828,363.015954 C803.987828,365.549837 803.083267,367.685195 801.272291,369.42388 C799.463168,371.160711 797.290739,372.030054 794.756855,372.030054 C792.221118,372.030054 790.046835,371.160711 788.237713,369.42388 C786.426737,367.685195 785.522176,365.549837 785.522176,363.015954 L785.522176,363.015954 Z M675.249129,358.343006 L690.020538,358.343006 L705.772507,405.81393 L722.499473,358.343006 L732.820368,358.343006 L749.547334,405.81393 L765.297449,358.343006 L780.072566,358.343006 L754.870899,434.38175 L744.550005,434.38175 L727.606166,386.260209 L710.767983,434.38175 L700.450795,434.38175 L675.249129,358.343006 Z M572.596268,418.3054 C574.40539,419.969941 576.596356,421.256345 579.169165,422.160906 C581.740121,423.067321 584.364831,423.519602 587.043296,423.519602 C588.926562,423.519602 590.518812,423.10254 591.8219,422.270269 C593.124987,421.436145 593.779311,420.368467 593.779311,419.06538 C593.779311,417.762293 593.143523,416.694614 591.877508,415.86049 C590.609639,415.028219 589.034072,414.26824 587.152659,413.578697 C585.269392,412.891008 583.224861,412.166247 581.01536,411.406268 C578.805858,410.646288 576.759474,409.669436 574.879914,408.473858 C572.99294,407.280134 571.417373,405.776857 570.153212,403.967735 C568.883489,402.156759 568.251409,399.837894 568.251409,397.014848 C568.251409,394.479111 568.811199,392.199172 569.936339,390.171324 C571.057773,388.14533 572.559196,386.423327 574.444316,385.010877 C576.325729,383.598427 578.479623,382.512212 580.90785,381.752232 C583.332371,380.992253 585.849572,380.612263 588.455746,380.612263 C590.192577,380.612263 591.931262,380.756844 593.669948,381.046007 C595.408633,381.337024 597.052784,381.73555 598.611669,382.241585 C600.1687,382.74762 601.614515,383.3278 602.958382,383.978417 C604.296687,384.630887 605.401438,385.283357 606.270781,385.933974 L599.644129,396.145506 C598.268751,395.131581 596.71172,394.280775 594.973035,393.593086 C593.23435,392.905397 591.423374,392.560626 589.541961,392.560626 C587.586403,392.560626 585.903326,392.923933 584.490876,393.646841 C583.078426,394.371602 582.374055,395.422598 582.374055,396.796122 C582.374055,397.954628 583.006136,398.879579 584.274004,399.567268 C585.541873,400.25681 587.115587,400.924109 588.998853,401.57658 C590.880266,402.227196 592.92665,402.933421 595.136152,403.693401 C597.3438,404.455234 599.388331,405.487694 601.275305,406.790781 C603.154864,408.093869 604.732286,409.723191 606.000154,411.678748 C607.264315,413.632452 607.900103,416.131117 607.900103,419.174743 C607.900103,421.708626 607.319924,423.971882 606.163272,425.962658 C605.004766,427.955288 603.462563,429.655047 601.545932,431.069351 C599.625593,432.479947 597.397555,433.566162 594.865525,434.327995 C592.329788,435.087975 589.686542,435.467965 586.933933,435.467965 C583.241544,435.467965 579.565837,434.871103 575.910521,433.675525 C572.25335,432.479947 568.864953,430.72458 565.752744,428.405715 L572.596268,418.3054 Z M542.615998,434.38175 L556.73679,434.38175 L556.73679,357.258644 L542.615998,357.258644 L542.615998,434.38175 Z M514.787767,434.38175 L528.90856,434.38175 L528.90856,381.698478 L514.787767,381.698478 L514.787767,434.38175 Z M512.615338,363.015954 C512.615338,360.48207 513.518045,358.343006 515.330875,356.606174 C517.138143,354.867489 519.312427,354 521.848164,354 C524.382047,354 526.554477,354.867489 528.365452,356.606174 C530.174575,358.343006 531.08099,360.48207 531.08099,363.015954 C531.08099,365.549837 530.174575,367.685195 528.365452,369.42388 C526.554477,371.160711 524.382047,372.030054 521.848164,372.030054 C519.312427,372.030054 517.138143,371.160711 515.330875,369.42388 C513.518045,367.685195 512.615338,365.549837 512.615338,363.015954 L512.615338,363.015954 Z M487.111533,400.16413 C485.662011,398.208572 483.815816,396.634858 481.572949,395.439281 C479.326375,394.245556 476.825857,393.646841 474.076955,393.646841 C471.974963,393.646841 470.091696,394.045367 468.427155,394.842418 C466.760761,395.63947 465.350164,396.707149 464.191659,398.045455 C463.033153,399.387468 462.126738,400.924109 461.476122,402.662794 C460.823651,404.40148 460.49927,406.212455 460.49927,408.093869 C460.49927,410.195861 460.840334,412.112493 461.529876,413.851178 C462.217565,415.588009 463.196271,417.09314 464.462286,418.359155 C465.730154,419.627023 467.214895,420.622411 468.916508,421.347172 C470.618121,422.07008 472.445779,422.433387 474.40319,422.433387 C477.079801,422.433387 479.522858,421.834671 481.736067,420.640947 C483.941862,419.445369 485.736155,417.871655 487.111533,415.914244 L487.111533,400.16413 Z M487.65464,434.38175 L487.65464,430.1444 C485.482211,432.027667 483.163346,433.386362 480.703607,434.218632 C478.240161,435.049049 475.667351,435.467965 472.988887,435.467965 C469.077772,435.467965 465.3687,434.669059 461.856112,433.078663 C458.341669,431.484559 455.427796,429.31213 453.112638,426.55952 C451.008792,424.170219 449.364641,421.400927 448.169063,418.251645 C446.975339,415.10051 446.376624,411.71582 446.376624,408.093869 C446.376624,404.184607 447.045776,400.564509 448.385936,397.23172 C449.724241,393.900785 451.572289,391.003594 453.928226,388.540148 C456.278602,386.080409 459.014529,384.141534 462.126738,382.730938 C465.240801,381.318488 468.608809,380.612263 472.228907,380.612263 C478.023288,380.612263 482.983546,382.241585 487.111533,385.50023 L487.111533,357.256791 L501.232325,357.256791 L501.232325,434.38175 L487.65464,434.38175 Z M441.381148,394.189948 C440.873259,394.045367 440.148498,393.919321 439.208718,393.809958 C438.265231,393.702449 437.288379,393.646841 436.274455,393.646841 C434.754496,393.646841 433.306827,393.900785 431.929596,394.40682 C430.554218,394.914709 429.304886,395.548643 428.183452,396.308623 C427.060165,397.068603 426.101849,397.882337 425.304798,398.75168 C424.507746,399.621022 423.894201,400.455146 423.458603,401.250344 L423.458603,434.38175 L409.335957,434.38175 L409.335957,381.698478 L422.915496,381.698478 L422.915496,387.020189 C424.507746,385.064632 426.644957,383.509454 429.323422,382.350948 C432.00374,381.192443 434.971368,380.612263 438.230013,380.612263 C439.243937,380.612263 440.094743,380.649335 440.784286,380.721626 C441.470121,380.793917 442.211564,380.901426 443.01047,381.046007 L441.381148,394.189948 Z M357.568368,408.093869 C357.568368,410.049426 357.909432,411.89562 358.600828,413.632452 C359.286663,415.371137 360.23015,416.891096 361.423874,418.196037 C362.619452,419.500978 364.06712,420.531584 365.768733,421.291564 C367.470346,422.051544 369.370296,422.433387 371.470434,422.433387 C373.498283,422.433387 375.381549,422.051544 377.120234,421.291564 C378.858919,420.531584 380.325124,419.500978 381.518848,418.196037 C382.714426,416.891096 383.654206,415.371137 384.345602,413.632452 C385.031437,411.89562 385.376208,410.049426 385.376208,408.093869 C385.376208,406.140165 385.031437,404.275434 384.345602,402.499677 C383.654206,400.727627 382.714426,399.187278 381.518848,397.882337 C380.325124,396.57925 378.858919,395.548643 377.120234,394.78681 C375.381549,394.026831 373.498283,393.646841 371.470434,393.646841 C369.370296,393.646841 367.470346,394.026831 365.768733,394.78681 C364.06712,395.548643 362.619452,396.57925 361.423874,397.882337 C360.23015,399.187278 359.286663,400.727627 358.600828,402.499677 C357.909432,404.275434 357.568368,406.140165 357.568368,408.093869 L357.568368,408.093869 Z M343.445721,408.093869 C343.445721,404.329189 344.151946,400.760992 345.564396,397.394838 C346.974993,394.026831 348.93055,391.112957 351.431069,388.649511 C353.92788,386.189772 356.897361,384.234215 360.337659,382.784693 C363.776104,381.337024 367.488882,380.612263 371.470434,380.612263 C375.45384,380.612263 379.164765,381.337024 382.605063,382.784693 C386.045361,384.234215 389.014843,386.189772 391.513507,388.649511 C394.010319,391.112957 395.965876,394.026831 397.378326,397.394838 C398.790776,400.760992 399.495147,404.329189 399.495147,408.093869 C399.495147,411.932693 398.790776,415.499036 397.378326,418.794753 C395.965876,422.088616 394.010319,424.985806 391.513507,427.482618 C389.014843,429.981282 386.045361,431.93684 382.605063,433.34929 C379.164765,434.76174 375.45384,435.467965 371.470434,435.467965 C367.488882,435.467965 363.776104,434.76174 360.337659,433.34929 C356.897361,431.93684 353.92788,429.981282 351.431069,427.482618 C348.93055,424.985806 346.974993,422.088616 345.564396,418.794753 C344.151946,415.499036 343.445721,411.932693 343.445721,408.093869 L343.445721,408.093869 Z M301.97493,370.293222 C298.352978,370.293222 295.003506,370.982765 291.926516,372.356289 C288.847671,373.73352 286.169206,375.598251 283.887414,377.950481 C281.607475,380.304564 279.833571,383.05532 278.565703,386.206455 C277.299688,389.355736 276.665754,392.74228 276.665754,396.362378 C276.665754,400.054767 277.333053,403.496918 278.675066,406.681419 C280.013371,409.869626 281.842883,412.620381 284.159894,414.937393 C286.476906,417.256257 289.209125,419.083916 292.362114,420.424075 C295.511395,421.762381 298.933157,422.433387 302.6274,422.433387 C306.102917,422.433387 309.252198,421.89028 312.075244,420.804065 C314.900144,419.71785 317.398809,418.3054 319.571239,416.566715 L319.571239,400.16413 L300.019372,400.16413 L300.019372,387.129552 L334.235139,387.129552 L334.235139,420.911574 C330.830059,425.256433 326.416616,428.770876 320.983689,431.449341 C315.550761,434.127806 309.324489,435.467965 302.301165,435.467965 C296.362202,435.467965 290.929274,434.452187 286.006089,432.426193 C281.082904,430.398344 276.8437,427.629053 273.297746,424.116464 C269.748085,420.603875 266.978794,416.457352 264.988018,411.678748 C262.995388,406.900144 262,401.793452 262,396.362378 C262,390.931304 262.978705,385.826465 264.934263,381.046007 C266.887967,376.26555 269.620186,372.122734 273.134629,368.608292 C276.647218,365.097556 280.864178,362.328265 285.789217,360.298563 C290.712402,358.272569 296.14533,357.256791 302.084292,357.256791 C307.732239,357.256791 312.909368,358.235496 317.617535,360.1892 C322.323848,362.144758 326.416616,364.789857 329.892133,368.120793 L320.440581,378.113598 C318.121717,375.796587 315.40618,373.915174 312.292117,372.465652 C309.179907,371.01613 305.739609,370.293222 301.97493,370.293222 L301.97493,370.293222 Z M640.577374,423.497358 C635.081424,423.497358 631.594786,419.165474 631.594786,414.831737 C631.594786,410.394197 634.026721,407.541493 637.619015,404.9001 L639.20385,403.737888 L651.988191,417.263672 C648.39775,421.067277 645.12057,423.497358 640.577374,423.497358 L640.577374,423.497358 Z M642.16221,369.394222 C646.601603,369.394222 649.769421,372.563893 649.769421,376.580664 C649.769421,379.327712 648.501552,381.969105 645.014914,384.506695 L641.315111,387.253744 L639.309506,385.034974 C637.407703,383.131317 634.871966,380.067302 634.871966,376.897631 C634.871966,371.826157 638.675572,369.394222 642.16221,369.394222 L642.16221,369.394222 Z M681.851684,403.654475 L677.523507,390.599508 L660.97078,407.85846 L649.663765,395.917512 L652.516469,393.804398 C657.908618,389.789481 663.085747,384.29353 663.085747,376.686319 C663.085747,365.484961 654.206961,357.772094 642.267866,357.772094 C632.123064,357.772094 621.55564,364.745371 621.55564,377.320254 C621.55564,384.082219 626.206345,389.789481 629.798639,393.593086 L630.960851,394.862808 L630.432573,395.177922 C622.614051,400.988986 617.646379,406.377427 617.646379,415.676983 C617.646379,425.716128 625.678066,435.755274 640.366063,435.755274 C648.39775,435.755274 654.840895,431.949815 660.442501,426.244407 L668.157221,434.38175 L686.331856,434.38175 L669.423236,416.629737 L681.851684,403.654475 Z" fill-rule="evenodd"></path>
</svg>