<svg viewBox="0 0 20 20">
<path d="M10.942,9.059h1.936c0.232-2.721,1.471-5.154,3.33-6.947C14.729,0.946,12.921,0.187,10.942,0V9.059z"/> <path d="M5.239,9.059C5.007,6.841,3.97,4.862,2.431,3.409C1.087,4.952,0.206,6.903-0.001,9.059H5.239z"/> <path d="M14.763,9.059h5.238c-0.201-2.155-1.084-4.106-2.432-5.649C16.03,4.862,14.995,6.841,14.763,9.059z"/> <path d="M9.058,9.059V0C7.079,0.184,5.269,0.946,3.792,2.111C5.651,3.904,6.89,6.338,7.124,9.059H9.058z"/> <path d="M14.763,10.942c0.232,2.217,1.268,4.194,2.807,5.648c1.346-1.543,2.225-3.494,2.432-5.648H14.763z"/> <path d="M12.878,10.942h-1.936V20c1.979-0.184,3.789-0.946,5.266-2.111C14.349,16.096,13.11,13.662,12.878,10.942z"/> <path d="M9.058,10.942H7.124c-0.234,2.72-1.473,5.153-3.332,6.946C5.271,19.054,7.079,19.814,9.058,20V10.942z"/> <path d="M-0.001,10.942c0.201,2.154,1.086,4.105,2.432,5.648c1.543-1.454,2.578-3.432,2.809-5.648H-0.001z"/>
</svg>