<svg viewBox="0 0 20 20">
<path d="M12.139,0.449H7.143c-0.664,0-1.373,0.078-2.132,0.233C4.247,0.86,3.51,1.246,2.796,1.832 C1.761,2.835,1.245,3.953,1.245,5.186c0,1.02,0.366,1.913,1.095,2.68c0.698,0.823,1.713,1.244,3.042,1.261 c0.251,0,0.519-0.017,0.804-0.05c-0.048,0.132-0.1,0.274-0.154,0.431C5.969,9.654,5.94,9.839,5.94,10.061 c0,0.367,0.08,0.684,0.245,0.946c0.138,0.271,0.301,0.525,0.48,0.763c-0.583,0.018-1.317,0.089-2.198,0.22 c-0.89,0.154-1.741,0.464-2.55,0.929c-0.719,0.432-1.217,0.931-1.492,1.502C0.142,14.989,0,15.509,0,15.972 c0,0.954,0.436,1.771,1.308,2.456c0.861,0.731,2.169,1.106,3.922,1.123c2.089-0.03,3.688-0.532,4.796-1.504 c1.069-0.938,1.604-2.014,1.604-3.23c-0.014-0.856-0.211-1.553-0.583-2.079c-0.399-0.525-0.86-1.002-1.388-1.437l-0.845-0.696 c-0.123-0.121-0.249-0.265-0.381-0.428C8.28,10.005,8.205,9.79,8.205,9.529c0-0.271,0.075-0.506,0.224-0.71 c0.127-0.195,0.266-0.371,0.413-0.525C9.102,8.065,9.347,7.84,9.578,7.62c0.21-0.219,0.404-0.46,0.59-0.722 c0.381-0.539,0.578-1.257,0.594-2.155c0-0.488-0.057-0.916-0.165-1.283c-0.135-0.369-0.286-0.686-0.459-0.955 C9.958,2.22,9.773,1.979,9.586,1.782C9.39,1.595,9.212,1.452,9.057,1.354h1.54L12.139,0.449z M9.399,14.132 c0.415,0.472,0.621,1.025,0.621,1.666c0,0.782-0.301,1.422-0.906,1.919c-0.622,0.505-1.52,0.768-2.698,0.786 c-1.31-0.019-2.347-0.312-3.103-0.885c-0.795-0.572-1.192-1.298-1.192-2.18c0-0.448,0.092-0.829,0.276-1.149 c0.158-0.303,0.354-0.556,0.584-0.759c0.239-0.198,0.474-0.348,0.705-0.455c0.229-0.096,0.407-0.172,0.536-0.219 c0.54-0.163,1.066-0.282,1.585-0.354c0.523-0.049,0.852-0.065,0.979-0.049c0.213,0,0.401,0.008,0.562,0.024 C8.277,13.132,8.963,13.681,9.399,14.132z M8.59,6.749C8.53,7.084,8.392,7.412,8.181,7.73c-0.438,0.45-0.986,0.687-1.644,0.713 c-0.52,0-0.984-0.16-1.388-0.479C4.743,7.646,4.413,7.256,4.157,6.799C3.63,5.817,3.364,4.874,3.364,3.966 C3.347,3.28,3.526,2.658,3.907,2.103c0.45-0.531,1.011-0.805,1.688-0.822c0.513,0.017,0.965,0.169,1.36,0.453 c0.388,0.304,0.696,0.695,0.932,1.178c0.508,1.006,0.759,2.002,0.759,2.991C8.643,6.132,8.626,6.414,8.59,6.749z M19.935,8.27 V8.257h-2.628v-2.68H15.77v2.68h-2.646v1.495h0.019v0.057h2.628v2.627h1.537V9.809H20V8.27H19.935z"/>
</svg>