<svg viewBox="0 0 20 20">
<path d="M16.753,0H3.247C1.454,0,0,1.454,0,3.247V10v6.753C0,18.546,1.454,20,3.247,20h13.506C18.546,20,20,18.546,20,16.753V10 V3.247C20,1.454,18.546,0,16.753,0z M10.001,7.091c1.606,0,2.914,1.308,2.914,2.915s-1.308,2.915-2.914,2.915 c-1.608,0-2.916-1.308-2.916-2.915S8.393,7.091,10.001,7.091z M14.063,4.19c0-0.97,0.785-1.755,1.755-1.755s1.754,0.785,1.754,1.755 c0,0.969-0.784,1.754-1.754,1.754S14.063,5.159,14.063,4.19z M17.971,16.753c0,0.671-0.547,1.218-1.218,1.218H3.247 c-0.671,0-1.218-0.547-1.218-1.218V10h3.026c0,0.002-0.001,0.004-0.001,0.006c0,2.73,2.215,4.944,4.946,4.944 c2.73,0,4.944-2.214,4.944-4.944c0-0.002,0-0.004,0-0.006h3.025V16.753z"/>
</svg>