<svg viewBox="0 0 20 20">
<path d="M4.54,19.554V6.657H0.253v12.896H4.54z M2.397,4.896c1.486,0,2.425-0.99,2.425-2.228C4.795,1.404,3.895,0.44,2.425,0.44 C0.958,0.44,0,1.404,0,2.669c0,1.237,0.923,2.228,2.368,2.228H2.397L2.397,4.896z"/> <path d="M6.912,19.554h4.286v-7.202c0-0.382,0.029-0.767,0.139-1.038c0.311-0.771,1.023-1.571,2.207-1.571 c1.554,0,2.172,1.188,2.172,2.923v6.895H20v-7.4c0-3.962-2.113-5.806-4.938-5.806c-2.314,0-3.324,1.295-3.895,2.175h0.029V6.657 H6.909C6.97,7.868,6.912,19.554,6.912,19.554L6.912,19.554z"/>
</svg>