<svg viewBox="0 0 15 20">
<path d="M8.213,0C2.752,0,0,3.915,0,7.18c0,1.974,0.748,3.733,2.354,4.391c0.264,0.108,0.5,0.004,0.577-0.286 c0.052-0.202,0.177-0.71,0.232-0.928c0.077-0.287,0.049-0.389-0.166-0.642C2.536,9.169,2.24,8.46,2.24,7.459 c0-2.903,2.173-5.501,5.657-5.501c3.086,0,4.782,1.879,4.782,4.4c0,3.314-1.468,6.113-3.645,6.113c-1.202,0-2.102-0.995-1.812-2.213 c0.345-1.455,1.014-3.027,1.014-4.078c0-0.938-0.505-1.725-1.549-1.725c-1.229,0-2.217,1.27-2.217,2.974 c0,1.081,0.367,1.815,0.367,1.815S3.58,14.576,3.36,15.509c-0.44,1.859-0.066,4.136-0.036,4.366c0.02,0.134,0.194,0.166,0.274,0.067 c0.112-0.148,1.577-1.954,2.073-3.759C5.813,15.671,6.48,13.02,6.48,13.02c0.4,0.76,1.566,1.435,2.806,1.435 c3.692,0,6.202-3.367,6.202-7.874C15.487,3.178,12.603,0,8.213,0z"/>
</svg>