<svg viewBox="0 0 20 20">
<path d="M10.001,0C4.478,0,0,4.478,0,10.001c0,4.098,2.463,7.612,5.985,9.159c-0.028-0.699-0.005-1.535,0.175-2.294 c0.193-0.813,1.287-5.45,1.287-5.45s-0.319-0.639-0.319-1.582c0-1.482,0.858-2.59,1.928-2.59c0.909,0,1.35,0.685,1.35,1.502 c0,0.915-0.584,2.281-0.885,3.551c-0.251,1.059,0.532,1.925,1.577,1.925c1.896,0,3.172-2.435,3.172-5.317 c0-2.193-1.476-3.834-4.16-3.834c-3.035,0-4.925,2.262-4.925,4.79c0,0.872,0.257,1.486,0.659,1.961 c0.185,0.219,0.211,0.307,0.146,0.558c-0.05,0.185-0.16,0.627-0.204,0.802c-0.067,0.254-0.272,0.346-0.503,0.251 c-1.396-0.57-2.047-2.101-2.047-3.821c0-2.84,2.396-6.248,7.147-6.248c3.817,0,6.33,2.763,6.33,5.729 c0,3.924-2.181,6.854-5.396,6.854c-1.081,0-2.096-0.582-2.444-1.246c0,0-0.581,2.305-0.702,2.749 c-0.213,0.772-0.625,1.541-1.006,2.143C8.062,19.856,9.016,20,9.999,20C15.521,20,20,15.521,20,9.998C20,4.476,15.522,0,10.001,0z"/>
</svg>
