<svg viewBox="0 0 20 15">
<path d="M4.207,0c0,0,1.597,4.229,6.258,5.544c0,0,0.418-3.194,3.354-3.422c0,0,2.534-0.339,3.587,1.845 c0,0,1.855,0.182,2.398-0.258c0,0-0.398,1.063-1.843,1.533c0,0,1.126,0.292,2.039,0.066c0,0-1.494,1.107-2.039,1.197L17.935,6.51 c-0.519,0.054-0.376,3.47-4.306,6.429c0,0-3.025,2.423-7.339,1.904C4.538,14.629,2.005,14.172,0,11.621c0,0,2.453,1.001,5.492-0.213 c0,0-2.555-0.91-2.596-3.25c0,0,1.198,0.321,1.462,0.349c0,0-2.545-1.687-1.8-4.341c0,0,0.832,0.667,1.373,0.752 C3.933,4.918,2.039,2.535,4.207,0z"/>
</svg>