<svg viewBox="0 0 20 20">
<path d="M18.14,1.377c-0.836-0.304-2.161-0.215-3.133,0.145c-0.442,0.163-0.948,0.452-1.328,0.758 c-0.227,0.184-0.609,0.58-0.805,0.828c-0.535,0.688-0.941,1.48-1.292,2.508c-0.06,0.176-0.104,0.325-0.1,0.333 c0.002,0.013,0.078-0.008,0.198-0.052c0.435-0.163,0.817-0.233,1.251-0.233c0.37,0,0.525,0.028,0.757,0.141 c0.283,0.144,0.478,0.382,0.575,0.729c0.025,0.109,0.025,0.198,0.025,0.542c-0.002,0.355-0.007,0.44-0.042,0.616 c-0.15,0.689-0.575,1.6-1.266,2.726c-0.848,1.354-1.461,2.037-1.898,2.064c-0.096,0.007-0.129,0-0.231-0.053 c-0.394-0.196-0.764-0.967-1.097-2.292c-0.281-1.115-0.46-2.08-0.885-4.755C8.707,4.356,8.657,4.105,8.55,3.727 C8.105,2.15,7.282,1.405,6.034,1.459C5.548,1.481,5.119,1.645,4.455,2.083C3.834,2.494,3.299,2.931,2.367,3.788 C1.852,4.261,0.826,5.189,0.319,5.644c-0.301,0.272-0.332,0.31-0.315,0.332c0.017,0.021,0.229,0.296,0.474,0.618 c0.28,0.374,0.457,0.579,0.477,0.568c0.012-0.005,0.119-0.076,0.233-0.164c0.428-0.294,0.92-0.616,1.094-0.7 c0.168-0.083,0.18-0.086,0.284-0.076c0.261,0.024,0.57,0.272,0.815,0.636c0.324,0.484,0.687,1.377,0.967,2.349 c0.041,0.148,0.443,1.637,0.891,3.31c0.554,2.063,0.841,3.111,0.903,3.261c0.689,1.774,1.491,2.748,2.451,2.988 c0.222,0.053,0.647,0.057,0.943,0.008c1.555-0.279,3.312-1.604,5.362-4.063c1.044-1.25,2.267-2.929,3.066-4.203 c0.727-1.158,1.35-2.419,1.644-3.286l0.047-0.153C19.658,7.06,21.076,2.444,18.14,1.377z"/>
</svg>