<svg viewBox="0 0 20 14.066">
<path d="M20,6.271v1.518c0,1.618-0.199,3.236-0.199,3.236s-0.195,1.378-0.795,1.985c-0.76,0.797-1.613,0.801-2.004,0.848 C14.204,14.06,10,14.066,10,14.066s-5.199-0.048-6.799-0.2c-0.445-0.084-1.445-0.059-2.205-0.855 c-0.6-0.607-0.795-1.985-0.795-1.985S0,9.407,0,7.789V6.271c0-1.619,0.201-3.236,0.201-3.236s0.195-1.379,0.795-1.986 C1.756,0.253,2.609,0.248,3,0.202C5.799,0,9.996,0,9.996,0h0.01c0,0,4.198,0,6.997,0.202c0.391,0.046,1.244,0.051,2.004,0.847 c0.6,0.607,0.795,1.986,0.795,1.986S20,4.652,20,6.271z M7.936,4.008v5.62l5.405-2.8L7.936,4.008z"/>
</svg>